<svg viewBox="0 0 400 400" xmlns="http://www.w3.org/2000/svg"><polyline points="200.0,341.58 12.612744020505659,240.33500447180484 367.09355452212134,256.7742074485283 149.81139669946663,328.95259410827117 272.10844326897563,73.01114670556434 220.7014754471326,332.90921835889367 128.27921198513536,83.28458618762534 355.1711815510772,273.1484335576278 40.134922950050935,251.88054211821162 282.5521226693654,92.53978794462603 166.96027162163972,318.5985818901577 150.64659003044923,77.79048187375892 233.15754934375354,312.8870356016879 47.19863933751711,233.75984866782048 335.51926332330584,246.54325679583388 159.03459499193355,304.97655760499504 257.46893689863015,97.09736999474768 217.15707749688772,307.2593499026921 143.2050962111109,106.52888532603227 323.53771008788374,258.87012505547085 73.24068445533487,242.1224242757347 264.37615633894944,114.58723142989646 173.75473919233457,293.74589023459396 162.0071621970049,104.11802253065972 226.3610636431365,288.29388820137603 81.78453465452935,227.18469286383555 303.9449721244906,236.31230614313975 168.25779328440075,281.0005211017191 242.8294305282887,121.18359328394139 213.61267954664254,281.6094814464907 158.13098043708578,129.77318446444033 291.90423862469015,244.59181655331386 106.34644596061864,232.36430643325812 246.2001900085334,136.63467491516698 180.54920676302905,268.8931985790301 173.36773436356103,130.44556318755957 219.5645779425196,263.7007408010642 116.37042997154106,220.60953705985108 272.3706809256753,226.08135549044547 177.48099157686755,257.0244845984429 228.18992415794625,145.26981657313212 210.06828159639755,255.9596129902892 173.05686466306193,153.01748360284626 260.2707671614966,230.31350805115693 139.4522074659023,222.6061885907817 228.0242236781174,158.68211840043745 187.34367433372375,244.04050692346635 184.7283065301162,156.77310384446105 212.7680922419026,239.10759340075234 150.95632528855307,214.03438125586638 240.79638972686,215.85040483775134 186.70418986933458,233.04844809516678 213.55041778760406,169.35603986232357 206.52388364615243,230.30974453408768 187.98274888903734,176.26178274125334 228.6372956983031,216.03519954900014 172.55796897118614,212.84807074830508 209.84825734770143,180.729561885708 194.13814190441843,219.1878152679026 196.0888786966716,183.10064450136204 205.9716065412856,214.5144460004405 185.54222060556506,207.4592254518817 209.22209852804474,205.6194541850572 200.0,203.0 205.34303643492652,211.2743419534427 187.20119886440747,207.72053507689571 217.20550375143472,206.9785068988024 194.07151587050373,217.25654582340073 204.37470753920383,180.4474055547906 207.24823898562732,221.59297948214612 187.5497994120818,180.31310822951943 231.80855682821309,213.06392226251913 169.39792593751073,218.0873173126865 212.0492277501395,171.8335553028966 194.09118877170621,232.83596690355725 183.44718166874102,167.21213703819234 215.91744858403976,234.46051950522508 154.96144033685454,219.76892385649145 250.76804961837814,211.86270729866246 188.68292247991195,242.4134463553085 214.24070782866897,154.1620122169809 214.68093721463293,246.35841740300282 168.56020719490374,160.0600923205461 266.1780806054916,221.94777580248012 139.10357409678755,233.02587626856524 225.8065870445159,146.94653295097638 191.1880045562657,258.46982436626695 167.33178231840512,143.34896374123966 226.49186073315298,257.6466970570075 122.72168180930159,231.8173126360871 284.33059548532157,216.74690769852245 183.29432908932014,267.57034688721626 224.10670811813404,127.8766188791711 222.11363544363846,271.12385532385963 149.57061497772565,139.80707641157284 300.54760438277003,230.83162934244092 108.80922225606417,247.96443522444414 239.56394633889235,122.05951059905607 188.28482034082523,284.1036818289766 151.2163829680696,119.48579044428605 237.06627288226628,280.8328746087899 90.48192328174865,243.86570141568302 317.89314135226465,221.63110809838236 177.90573569872836,292.72724741912407 233.97270840759836,101.59122554135989 229.54633367264412,295.8892932447163 130.58102276054672,119.55406050260171 334.9171281600486,239.715482882402 78.51487041534111,262.902994180323 253.3213056332687,97.17248824713573 185.38163612538486,309.73753929168646 135.10098361773373,95.62261714733302 247.64068503137946,304.0190521605723 58.242164754195755,255.9140901952788 351.455687219208,226.5153084982423 172.5171423081366,317.8841479510318 243.83870869706436,75.3058322035514 236.97903190164962,320.6547311655731 111.5914305433684,99.30104459362907 369.28665193732684,248.59933642236257 48.220518574617756,277.8415531362017 267.0786649276438,72.28546589521349 182.47845190994428,335.3713967543961 118.98558426739802,71.75944385038005 258.2150971804928,327.20522971235465 26.00240622664245,267.9624789748746 " style="fill:none;stroke:black;stroke-width:1" /></svg>